<mxfile host="65bd71144e" modified="2020-12-09T16:16:25.714Z" agent="5.0 (Windows NT 10.0; Win64; x64) AppleWebKit/537.36 (KHTML, like Gecko) Code/1.51.1 Chrome/83.0.4103.122 Electron/9.3.3 Safari/537.36" etag="5EMt_1KVJBG6-w7p9gOo" version="13.10.0" type="embed">
    <diagram id="z14vSeZqsBeby1pGRkb1" name="Page-1">
        <mxGraphModel dx="1204" dy="577" grid="1" gridSize="10" guides="1" tooltips="1" connect="1" arrows="1" fold="1" page="1" pageScale="1" pageWidth="850" pageHeight="1000" background="#114B5F" math="0" shadow="0">
            <root>
                <mxCell id="0"/>
                <mxCell id="1" parent="0"/>
                <mxCell id="2" value="Visitor" style="swimlane;fontStyle=1;align=center;verticalAlign=top;childLayout=stackLayout;horizontal=1;startSize=26;horizontalStack=0;resizeParent=1;resizeParentMax=0;resizeLast=0;collapsible=1;marginBottom=0;fillColor=#F45B69;strokeColor=#028090;fontColor=#E4FDE1;" parent="1" vertex="1">
                    <mxGeometry x="150" y="320" width="170" height="86" as="geometry"/>
                </mxCell>
                <mxCell id="3" value="- type: OperatorType" style="text;strokeColor=none;fillColor=none;align=left;verticalAlign=top;spacingLeft=4;spacingRight=4;overflow=hidden;rotatable=0;points=[[0,0.5],[1,0.5]];portConstraint=eastwest;fontColor=#E4FDE1;" parent="2" vertex="1">
                    <mxGeometry y="26" width="170" height="26" as="geometry"/>
                </mxCell>
                <mxCell id="4" value="" style="line;strokeWidth=1;fillColor=none;align=left;verticalAlign=middle;spacingTop=-1;spacingLeft=3;spacingRight=3;rotatable=0;labelPosition=right;points=[];portConstraint=eastwest;strokeColor=#028090;fontColor=#E4FDE1;labelBackgroundColor=#114B5F;" parent="2" vertex="1">
                    <mxGeometry y="52" width="170" height="8" as="geometry"/>
                </mxCell>
                <mxCell id="5" value="+ type: getter(OperatorType)" style="text;strokeColor=none;fillColor=none;align=left;verticalAlign=top;spacingLeft=4;spacingRight=4;overflow=hidden;rotatable=0;points=[[0,0.5],[1,0.5]];portConstraint=eastwest;fontColor=#E4FDE1;" parent="2" vertex="1">
                    <mxGeometry y="60" width="170" height="26" as="geometry"/>
                </mxCell>
                <mxCell id="6" value="Queue" style="swimlane;fontStyle=1;align=center;verticalAlign=top;childLayout=stackLayout;horizontal=1;startSize=26;horizontalStack=0;resizeParent=1;resizeParentMax=0;resizeLast=0;collapsible=1;marginBottom=0;fillColor=#F45B69;strokeColor=#028090;fontColor=#E4FDE1;" parent="1" vertex="1">
                    <mxGeometry x="340" y="30" width="220" height="200" as="geometry"/>
                </mxCell>
                <mxCell id="7" value="- operators: list&lt;Operator&gt;&#10;- currentQueue: list&lt;Queue&gt;" style="text;strokeColor=none;fillColor=none;align=left;verticalAlign=top;spacingLeft=4;spacingRight=4;overflow=hidden;rotatable=0;points=[[0,0.5],[1,0.5]];portConstraint=eastwest;fontColor=#E4FDE1;" parent="6" vertex="1">
                    <mxGeometry y="26" width="220" height="44" as="geometry"/>
                </mxCell>
                <mxCell id="8" value="" style="line;strokeWidth=1;fillColor=none;align=left;verticalAlign=middle;spacingTop=-1;spacingLeft=3;spacingRight=3;rotatable=0;labelPosition=right;points=[];portConstraint=eastwest;strokeColor=#028090;fontColor=#E4FDE1;labelBackgroundColor=#114B5F;" parent="6" vertex="1">
                    <mxGeometry y="70" width="220" height="8" as="geometry"/>
                </mxCell>
                <mxCell id="9" value="+ currentQueue: getter(Queue)&#10;+ addVisitor(visitor): void&#10;+ findVisitorForOperator(operator): void&#10;+ addOperator(operator): void&#10;- removeVisitor(visitor): void" style="text;strokeColor=none;fillColor=none;align=left;verticalAlign=top;spacingLeft=4;spacingRight=4;overflow=hidden;rotatable=0;points=[[0,0.5],[1,0.5]];portConstraint=eastwest;fontColor=#E4FDE1;" parent="6" vertex="1">
                    <mxGeometry y="78" width="220" height="122" as="geometry"/>
                </mxCell>
                <mxCell id="10" value="Operator" style="swimlane;fontStyle=1;align=center;verticalAlign=top;childLayout=stackLayout;horizontal=1;startSize=26;horizontalStack=0;resizeParent=1;resizeParentMax=0;resizeLast=0;collapsible=1;marginBottom=0;fillColor=#F45B69;strokeColor=#028090;fontColor=#E4FDE1;" parent="1" vertex="1">
                    <mxGeometry x="560" y="320" width="200" height="200" as="geometry"/>
                </mxCell>
                <mxCell id="11" value="- name: string&#10;- types: list&lt;OperatorType&gt;&#10;- isFree: bool&#10;- queue: Queue&#10;- clientsNumber: int" style="text;strokeColor=none;fillColor=none;align=left;verticalAlign=top;spacingLeft=4;spacingRight=4;overflow=hidden;rotatable=0;points=[[0,0.5],[1,0.5]];portConstraint=eastwest;fontColor=#E4FDE1;" parent="10" vertex="1">
                    <mxGeometry y="26" width="200" height="84" as="geometry"/>
                </mxCell>
                <mxCell id="12" value="" style="line;strokeWidth=1;fillColor=none;align=left;verticalAlign=middle;spacingTop=-1;spacingLeft=3;spacingRight=3;rotatable=0;labelPosition=right;points=[];portConstraint=eastwest;strokeColor=#028090;fontColor=#E4FDE1;labelBackgroundColor=#114B5F;" parent="10" vertex="1">
                    <mxGeometry y="110" width="200" height="8" as="geometry"/>
                </mxCell>
                <mxCell id="13" value="+ types: getter(list&lt;OperatorType&gt;)&#10;+ isFree: getter(bool)&#10;+ clientsNumber: getter(int)&#10;+ workWithVisitor(visitor): void&#10;- finishWithVisitor(): void" style="text;strokeColor=none;fillColor=none;align=left;verticalAlign=top;spacingLeft=4;spacingRight=4;overflow=hidden;rotatable=0;points=[[0,0.5],[1,0.5]];portConstraint=eastwest;fontColor=#E4FDE1;" parent="10" vertex="1">
                    <mxGeometry y="118" width="200" height="82" as="geometry"/>
                </mxCell>
                <mxCell id="14" value="" style="endArrow=diamondThin;endFill=0;endSize=24;html=1;entryX=0.5;entryY=0;entryDx=0;entryDy=0;exitX=0.498;exitY=1.005;exitDx=0;exitDy=0;exitPerimeter=0;strokeColor=#028090;fontColor=#E4FDE1;labelBackgroundColor=#114B5F;" parent="1" source="9" target="2" edge="1">
                    <mxGeometry width="160" relative="1" as="geometry">
                        <mxPoint x="330" y="270" as="sourcePoint"/>
                        <mxPoint x="490" y="270" as="targetPoint"/>
                        <Array as="points">
                            <mxPoint x="450" y="270"/>
                            <mxPoint x="235" y="270"/>
                        </Array>
                    </mxGeometry>
                </mxCell>
                <mxCell id="15" value="" style="endArrow=diamondThin;endFill=0;endSize=24;html=1;entryX=0.5;entryY=0;entryDx=0;entryDy=0;strokeColor=#028090;fontColor=#E4FDE1;labelBackgroundColor=#114B5F;" parent="1" target="10" edge="1">
                    <mxGeometry width="160" relative="1" as="geometry">
                        <mxPoint x="450" y="230" as="sourcePoint"/>
                        <mxPoint x="710" y="270" as="targetPoint"/>
                        <Array as="points">
                            <mxPoint x="450" y="270"/>
                            <mxPoint x="660" y="270"/>
                        </Array>
                    </mxGeometry>
                </mxCell>
            </root>
        </mxGraphModel>
    </diagram>
</mxfile>